<?xml version="1.0" standalone="no"?>
<!DOCTYPE svg PUBLIC "-//W3C//DTD SVG 20010904//EN"
 "http://www.w3.org/TR/2001/REC-SVG-20010904/DTD/svg10.dtd">
<svg version="1.0" xmlns="http://www.w3.org/2000/svg"
 width="512.000000pt" height="512.000000pt" viewBox="0 0 512.000000 512.000000"
 preserveAspectRatio="xMidYMid meet">

<g transform="translate(0.000000,512.000000) scale(0.100000,-0.100000)"
fill="#000000" stroke="none">
<path d="M3165 4263 c-613 -29 -1260 -209 -1801 -499 -161 -87 -191 -110 -200
-159 -11 -60 44 -125 106 -125 12 0 83 33 158 74 457 249 927 398 1502 478
154 21 665 18 815 -6 601 -93 989 -342 1122 -721 25 -72 28 -93 28 -210 0
-118 -2 -135 -27 -192 -14 -34 -43 -88 -64 -120 -51 -78 -215 -239 -349 -343
-165 -128 -185 -149 -185 -199 0 -61 43 -106 102 -106 37 0 54 8 127 64 441
336 602 559 618 856 16 283 -122 576 -366 779 -304 253 -717 393 -1256 426
-163 9 -196 10 -330 3z"/>
<path d="M890 3383 c-91 -82 5 -222 116 -170 41 20 68 74 59 118 -17 74 -117
104 -175 52z"/>
<path d="M2383 3386 l-28 -24 -5 -239 c-3 -131 -3 -357 0 -503 l5 -265 29 -53
c56 -100 162 -166 269 -167 54 0 61 3 88 33 62 69 24 163 -75 181 -30 6 -58
19 -75 35 -26 26 -26 27 -29 205 l-3 179 76 4 c72 3 79 6 106 36 40 45 40 99
0 144 -27 30 -34 33 -105 36 l-76 4 0 170 c0 105 -4 178 -11 191 -31 61 -115
77 -166 33z"/>
<path d="M3874 3376 l-34 -34 0 -543 c0 -490 5 -607 24 -627 4 -3 23 11 44 31
24 23 47 37 64 37 14 0 38 3 54 6 l29 6 -1 526 c-1 290 -2 537 -3 550 -1 13
-14 37 -30 53 -43 43 -101 41 -147 -5z"/>
<path d="M4307 3384 c-15 -14 -29 -35 -33 -46 -11 -36 5 -86 37 -112 105 -89
241 65 139 157 -42 37 -106 38 -143 1z"/>
<path d="M482 3103 c-301 -315 -482 -708 -482 -1043 0 -639 565 -1091 1490
-1191 250 -27 660 -10 965 42 366 61 899 227 1255 389 159 72 401 204 428 233
68 72 4 190 -93 173 -16 -2 -75 -30 -130 -61 -464 -261 -1124 -477 -1685 -552
-195 -26 -685 -26 -855 1 -626 97 -1032 373 -1136 774 -23 89 -28 252 -10 350
39 210 172 466 347 666 131 149 129 146 129 194 0 37 -5 48 -33 73 -25 22 -42
29 -75 29 -39 0 -46 -5 -115 -77z"/>
<path d="M913 2975 c-61 -26 -63 -37 -63 -415 0 -374 2 -385 60 -415 37 -19
54 -19 95 1 63 29 65 44 65 414 0 370 -2 385 -65 414 -40 19 -51 19 -92 1z"/>
<path d="M1333 2971 c-17 -11 -37 -29 -42 -40 -7 -13 -11 -142 -11 -373 0
-389 -1 -381 62 -414 42 -22 90 -11 122 27 l26 31 0 284 0 284 180 0 180 0 32
-29 33 -29 5 -260 c5 -280 5 -279 63 -309 41 -21 90 -10 121 28 l26 31 0 264
c0 236 -2 269 -19 314 -30 78 -81 134 -159 172 l-66 33 -261 3 c-245 3 -262 2
-292 -17z"/>
<path d="M3105 2976 c-81 -21 -145 -56 -205 -115 -169 -166 -169 -433 -1 -602
61 -60 135 -100 219 -118 29 -6 135 -11 235 -11 214 0 243 8 266 75 12 35 11
45 -2 78 -26 60 -55 67 -274 67 -209 0 -240 8 -297 69 l-30 31 257 0 c296 0
317 4 344 67 13 32 14 48 4 106 -30 181 -161 318 -339 356 -66 14 -113 13
-177 -3z m192 -231 c28 -14 59 -37 67 -50 l16 -25 -182 0 -182 0 30 31 c66 71
163 88 251 44z"/>
</g>
</svg>
